#!OML:ASF F:\VICON\USERDATA\INSTALL\rory3\rory3.ASF
:FULLY-SPECIFIED
:DEGREES
319
root -6.96996 17.826 8.73805 -2.1783 -49.0129 1.15644
lowerback 9.32548 3.09031 1.90067
upperback 0.0839912 4.30348 -0.119773
thorax -4.9856 2.07367 -1.76418
lowerneck -20.2317 -5.28917 -9.74269
upperneck 24.8587 -6.25949 6.50878
head 12.0713 -2.942 3.03899
rclavicle 3.33461e-014 1.19271e-015
rhumerus -32.9115 -12.0169 -78.5665
rradius 33.5737
rwrist 5.87964
rhand -14.9842 10.766
rfingers 7.12502
rthumb 11.18 -18.9162
lclavicle 3.33461e-014 1.19271e-015
lhumerus -40.4273 7.39412 81.0768
lradius 27.1879
lwrist -12.9723
lhand -13.7758 25.2104
lfingers 7.12502
lthumb 12.3452 54.826
rfemur 11.5158 0.89183 21.7429
rtibia 37.2914
rfoot 0.502243 -0.876927
rtoes -3.37673
lfemur -16.0759 0.962556 -23.2267
ltibia 11.5261
lfoot 4.65386 -3.93876
ltoes -4.07354
320
root -7.09009 17.8374 8.87764 -2.77029 -48.7861 1.65603
lowerback 9.45388 3.03271 1.68936
upperback 0.107106 4.19855 -0.257194
thorax -5.04225 2.02437 -1.78287
lowerneck -20.2941 -5.27427 -9.65515
upperneck 24.9701 -6.24136 6.41657
head 12.1186 -2.93721 2.99315
rclavicle 3.78064e-014 1.98785e-016
rhumerus -33.2322 -12.5667 -78.491
rradius 33.5759
rwrist 6.14717
rhand -14.7166 10.8321
rfingers 7.12502
rthumb 11.4381 -18.8359
lclavicle 3.78064e-014 1.98785e-016
lhumerus -40.4856 7.46873 80.9008
lradius 27.0923
lwrist -12.938
lhand -13.2528 25.4259
lfingers 7.12502
lthumb 12.8495 55.0103
rfemur 10.5988 0.465928 21.0335
rtibia 39.7267
rfoot 3.34592 -0.604734
rtoes -1.24356
lfemur -15.4352 1.93738 -23.8711
ltibia 11.7893
lfoot 4.62463 -5.40234
ltoes -1.71137
321
root -7.20749 17.8516 9.01613 -3.26375 -48.6442 2.01905
lowerback 9.64504 2.97009 1.51652
upperback 0.107829 4.09599 -0.311895
thorax -5.16073 1.97504 -1.74182
lowerneck -20.3882 -5.26846 -9.64033
upperneck 25.1172 -6.20104 6.29321
head 12.1861 -2.93329 2.95139
rclavicle -4.65405e-014 6.16232e-015
rhumerus -33.5659 -12.8637 -78.3585
rradius 33.5927
rwrist 6.31906
rhand -14.3787 11.0487
rfingers 7.12502
rthumb 11.764 -18.601
lclavicle -4.65405e-014 6.16232e-015
lhumerus -40.4928 7.58226 80.7884
lradius 26.8848
lwrist -13.044
lhand -12.9377 25.3768
lfingers 7.12502
lthumb 13.1532 54.9419
rfemur 9.54181 0.0594468 20.4269
rtibia 42.2686
rfoot 5.44749 0.273502
rtoes -0.394398
lfemur -14.6676 2.47392 -24.3203
ltibia 11.9122
lfoot 4.58989 -6.4382
ltoes 0.561602
322
root -7.32403 17.8674 9.15407 -3.89768 -48.6151 2.54384
lowerback 9.82753 2.97982 1.20016
upperback 0.157687 4.0704 -0.385702
thorax -5.22829 1.9681 -1.64817
lowerneck -20.5871 -5.30103 -9.51417
upperneck 25.2267 -6.211 6.07574
head 12.2569 -2.95024 2.8441
rclavicle 1.31583e-013 5.96354e-016
rhumerus -33.7499 -13.3408 -78.2124
rradius 33.4884
rwrist 6.48477
rhand -14.062 11.2657
rfingers 7.12502
rthumb 12.0693 -18.3662
lclavicle 1.31583e-013 5.96354e-016
lhumerus -40.3903 7.78218 80.6625
lradius 26.7658
lwrist -13.3937
lhand -12.1566 25.3554
lfingers 7.12502
lthumb 13.9061 54.8705
rfemur 8.39621 -0.122245 19.771
rtibia 44.8939
rfoot 7.58017 0.798942
rtoes 1.23539
lfemur -13.7802 2.90729 -24.8504
ltibia 11.8821
lfoot 4.43535 -7.12917
ltoes 1.77407
323
root -7.43912 17.8857 9.28751 -4.66816 -48.547 3.3631
lowerback 9.88794 2.98375 0.657195
upperback 0.249616 4.00569 -0.51446
thorax -5.19577 1.94842 -1.47068
lowerneck -20.6934 -5.30615 -9.50171
upperneck 25.1504 -6.19183 6.03136
head 12.2442 -2.94285 2.82592
rclavicle 5.78463e-014 -7.15625e-015
rhumerus -33.7888 -13.7476 -78.189
rradius 33.3519
rwrist 6.56545
rhand -13.9149 11.2688
rfingers 7.12502
rthumb 12.2112 -18.3548
lclavicle 5.78463e-014 -7.15625e-015
lhumerus -40.2013 7.98064 80.5668
lradius 26.6863
lwrist -13.8166
lhand -11.4718 25.3479
lfingers 7.12502
lthumb 14.566 54.8165
rfemur 7.05685 -0.180331 18.9726
rtibia 47.5874
rfoot 10.0839 0.784911
rtoes 4.11428
lfemur -12.8649 3.21517 -25.5698
ltibia 11.6189
lfoot 4.26292 -7.51585
ltoes 1.20183
324
root -7.55383 17.903 9.4143 -5.48091 -48.5301 4.24333
lowerback 9.98909 3.00333 0.0634675
upperback 0.328819 3.95444 -0.661017
thorax -5.20058 1.93528 -1.28805
lowerneck -20.6997 -5.29085 -9.64295
upperneck 25.0657 -6.1555 6.16854
head 12.2193 -2.92147 2.90723
rclavicle 3.5657e-014 -2.78299e-015
rhumerus -33.8658 -13.859 -78.2728
rradius 33.3243
rwrist 6.44271
rhand -14.0327 10.9753
rfingers 7.12502
rthumb 12.0976 -18.655
lclavicle 3.5657e-014 -2.78299e-015
lhumerus -39.9814 7.97253 80.5776
lradius 26.5882
lwrist -13.8351
lhand -11.5581 25.22
lfingers 7.12502
lthumb 14.4828 54.6946
rfemur 5.62764 -0.152873 18.2248
rtibia 50.3023
rfoot 12.576 0.506825
rtoes 6.50092
lfemur -11.8285 3.53475 -26.2898
ltibia 11.0782
lfoot 4.26576 -7.82153
ltoes 0.333278
325
root -7.66658 17.9213 9.54241 -6.31905 -48.66 5.2141
lowerback 10.017 3.08364 -0.561393
upperback 0.397338 3.97891 -0.830721
thorax -5.1746 1.95988 -1.1188
lowerneck -20.73 -5.24853 -9.59747
upperneck 25.0196 -6.0951 6.13964
head 12.1985 -2.89269 2.89816
rclavicle 6.67171e-015 3.37934e-015
rhumerus -33.9009 -13.8277 -78.4053
rradius 33.2462
rwrist 6.24283
rhand -14.234 10.7813
rfingers 7.12502
rthumb 11.9035 -18.8603
lclavicle 6.67171e-015 3.37934e-015
lhumerus -39.6735 7.55175 80.7959
lradius 26.5052
lwrist -13.4465
lhand -11.5333 25.2949
lfingers 7.12502
lthumb 14.5067 54.7678
rfemur 4.11158 0.0669406 17.4292
rtibia 52.9873
rfoot 14.9313 0.110232
rtoes 9.01939
lfemur -10.696 3.86826 -27.0604
ltibia 10.2641
lfoot 4.37355 -8.11215
ltoes 1.09987
326
root -7.77701 17.9347 9.66925 -7.07981 -48.7529 6.04478
lowerback 10.0961 3.15938 -1.02457
upperback 0.478369 4.01377 -1.01557
thorax -5.15225 1.98493 -1.05957
lowerneck -20.751 -5.2825 -9.59807
upperneck 24.9217 -6.15006 6.19123
head 12.1714 -2.90887 2.90674
rclavicle 1.48778e-013 -1.49089e-014
rhumerus -33.8021 -14.2734 -78.4455
rradius 32.942
rwrist 6.41245
rhand -14.3276 10.8436
rfingers 7.12502
rthumb 11.8132 -18.8032
lclavicle 1.48778e-013 -1.49089e-014
lhumerus -39.3251 6.84981 81.1092
lradius 26.4697
lwrist -13.0387
lhand -11.434 25.3745
lfingers 7.12502
lthumb 14.6024 54.8404
rfemur 2.6479 0.271454 16.7062
rtibia 55.5922
rfoot 16.8421 -0.288644
rtoes 11.6473
lfemur -9.48282 4.1232 -27.728
ltibia 9.36499
lfoot 4.48453 -8.39604
ltoes 3.04263
327
root -7.8872 17.9467 9.79361 -7.75679 -48.7727 6.73352
lowerback 10.2495 3.17887 -1.43748
upperback 0.516591 3.98004 -1.14569
thorax -5.21733 1.97505 -0.968077
lowerneck -20.7562 -5.30142 -9.69728
upperneck 24.89 -6.15909 6.25436
head 12.1671 -2.91385 2.94531
rclavicle -2.02015e-014 -7.95139e-016
rhumerus -33.7338 -14.7337 -78.4185
rradius 32.5829
rwrist 6.70829
rhand -14.3389 11.1494
rfingers 7.12502
rthumb 11.8023 -18.498
lclavicle -2.02015e-014 -7.95139e-016
lhumerus -39.1482 6.53413 81.2594
lradius 26.4606
lwrist -13.1156
lhand -11.3552 25.0594
lfingers 7.12502
lthumb 14.6783 54.5199
rfemur 1.22623 0.380918 16.1267
rtibia 58.0916
rfoot 18.1367 -0.609612
rtoes 12.0578
lfemur -8.22146 4.31203 -28.2984
ltibia 8.44941
lfoot 4.54076 -8.50502
ltoes 3.96292
328
root -7.99615 17.9567 9.9197 -8.44694 -48.8052 7.40833
lowerback 10.3727 3.16925 -1.85234
upperback 0.581321 3.90978 -1.22681
thorax -5.24088 1.94785 -0.816119
lowerneck -20.7903 -5.25031 -9.77655
upperneck 24.8572 -6.05223 6.25486
head 12.1538 -2.87271 2.97653
rclavicle 5.38458e-014 1.51076e-014
rhumerus -33.6433 -14.5483 -78.5344
rradius 32.3391
rwrist 6.54769
rhand -14.5015 11.4838
rfingers 7.12502
rthumb 11.6455 -18.1726
lclavicle 5.38458e-014 1.51076e-014
lhumerus -38.9896 6.44048 81.3675
lradius 26.5745
lwrist -13.3706
lhand -11.0866 25.0766
lfingers 7.12502
lthumb 14.9371 54.518
rfemur -0.145734 0.451561 15.5763
rtibia 60.4552
rfoot 18.6323 -0.843727
rtoes 11.2065
lfemur -6.91088 4.51962 -28.8815
ltibia 7.52785
lfoot 4.44812 -8.53739
ltoes 3.18957
329
root -8.10455 17.9661 10.0413 -9.03595 -48.7658 7.94007
lowerback 10.4735 3.11495 -2.21057
upperback 0.682609 3.78952 -1.26711
thorax -5.21126 1.89489 -0.642615
lowerneck -20.7701 -5.17107 -9.91353
upperneck 24.7746 -5.9106 6.33144
head 12.1116 -2.81234 3.05247
rclavicle -5.39949e-014 -8.34896e-015
rhumerus -33.4981 -13.9201 -78.8131
rradius 32.2106
rwrist 6.24726
rhand -14.8104 11.3712
rfingers 7.12502
rthumb 11.3477 -18.3018
lclavicle -5.39949e-014 -8.34896e-015
lhumerus -38.5914 6.22367 81.4979
lradius 26.5147
lwrist -13.7415
lhand -10.3816 25.3416
lfingers 7.12502
lthumb 15.6162 54.7312
rfemur -1.48872 0.470028 15.1251
rtibia 62.6637
rfoot 18.099 -1.09831
rtoes 11.7969
lfemur -5.55031 4.65616 -29.3613
ltibia 6.46291
lfoot 4.46798 -8.61575
ltoes 2.37587
330
root -8.21349 17.9755 10.1603 -9.44864 -48.6306 8.27174
lowerback 10.5783 3.02022 -2.48637
upperback 0.739822 3.62587 -1.28384
thorax -5.22452 1.81926 -0.485487
lowerneck -20.5431 -5.04791 -9.91013
upperneck 24.5657 -5.73719 6.29567
head 11.967 -2.74157 3.06754
rclavicle -7.37988e-015 1.31198e-014
rhumerus -33.3683 -13.4693 -79.0498
rradius 32.0803
rwrist 6.12366
rhand -14.7955 10.8893
rfingers 7.12502
rthumb 11.362 -18.7829
lclavicle -7.37988e-015 1.31198e-014
lhumerus -38.2644 5.90302 81.5977
lradius 26.4903
lwrist -14.2181
lhand -9.39359 25.3703
lfingers 7.12502
lthumb 16.5675 54.683
rfemur -2.80553 0.236381 14.7672
rtibia 64.6788
rfoot 16.6978 -0.892837
rtoes 11.5966
lfemur -4.3351 4.68873 -29.6651
ltibia 5.58581
lfoot 4.47175 -8.75403
ltoes 2.93842
331
root -8.32585 17.9901 10.2785 -9.79957 -48.4001 8.59164
lowerback 10.6346 2.92398 -2.82459
upperback 0.777108 3.45493 -1.28654
thorax -5.23458 1.74186 -0.275416
lowerneck -20.4713 -4.95248 -9.78611
upperneck 24.5109 -5.59223 6.10711
head 11.9071 -2.68998 2.99984
rclavicle 2.19409e-014 -7.95139e-016
rhumerus -33.2113 -13.6375 -79.0878
rradius 31.8602
rwrist 6.42762
rhand -14.713 10.5328
rfingers 7.12502
rthumb 11.4416 -19.135
lclavicle 2.19409e-014 -7.95139e-016
lhumerus -38.0862 5.79109 81.6821
lradius 26.6186
lwrist -14.4953
lhand -9.34912 25.1959
lfingers 7.12502
lthumb 16.6104 54.5051
rfemur -4.13329 -0.149736 14.432
rtibia 66.5122
rfoot 15.0301 -0.50419
rtoes 10.9135
lfemur -3.40495 4.62242 -29.97
ltibia 5.12901
lfoot 4.31984 -8.75426
ltoes 4.57014
332
root -8.43399 18.0016 10.3941 -9.96768 -48.0164 8.61857
lowerback 10.8098 2.76615 -2.98108
upperback 0.779705 3.22343 -1.20436
thorax -5.33865 1.63254 -0.0756228
lowerneck -20.3776 -4.87101 -9.67195
upperneck 24.5286 -5.44956 5.84467
head 11.87 -2.6512 2.90664
rclavicle -3.2228e-014 8.74653e-015
rhumerus -33.1998 -13.7266 -79.0163
rradius 31.7132
rwrist 6.73864
rhand -14.6134 10.6644
rfingers 7.12502
rthumb 11.5376 -18.998
lclavicle -3.2228e-014 8.74653e-015
lhumerus -38.0443 5.79819 81.8379
lradius 26.8
lwrist -14.6074
lhand -9.93715 25.1394
lfingers 7.12502
lthumb 16.0442 54.4951
rfemur -5.32938 -0.646402 14.3323
rtibia 68.135
rfoot 13.2956 -0.389678
rtoes 10.8915
lfemur -2.4415 4.38546 -30.0863
ltibia 4.67663
lfoot 4.1602 -8.67927
ltoes 5.98747
